<svg width="87" height="68" viewBox="0 0 87 68" fill="none" xmlns="http://www.w3.org/2000/svg">
<path d="M52.4178 33.8142H79.4178C79.6831 32.1488 79.6484 32.0942 78.1658 32.0942C70.0018 32.0915 61.8378 32.0928 53.6738 32.0955C53.2671 32.0968 52.8604 32.1315 52.4178 32.1528V33.8142ZM50.4698 41.8088H78.2284V40.0848H50.5578C50.5284 40.6568 50.5018 41.1835 50.4698 41.8088ZM48.9031 49.7942H77.0818V48.0702H48.9031V49.7942ZM46.3724 58.6382H76.2978V56.9128H46.3724V58.6382ZM38.8004 11.6622C38.3098 8.10885 40.7591 3.71284 44.1498 1.92351C46.0178 0.936845 48.0031 0.496845 50.1018 0.487512C56.0631 0.462179 62.0244 0.419509 67.9858 0.427509C68.3164 0.427509 68.7258 0.750179 68.9631 1.03418C73.3671 6.32884 77.7484 11.6422 82.1418 16.9475C83.4631 18.5422 84.8085 20.1195 86.1338 21.7115C86.2845 21.8928 86.5151 22.1368 86.4871 22.3168C85.8511 26.4568 85.1418 30.5862 84.5364 34.7288C84.0538 38.0288 83.7071 41.3462 83.2724 44.6528C82.6404 49.4648 82.1364 54.3008 81.2858 59.0755C80.6431 62.6822 77.4444 66.3608 73.0858 66.9928C69.8898 67.4568 66.5991 67.3342 63.3498 67.3515C55.8618 67.3915 48.3724 67.3835 40.8844 67.3422C37.6111 67.3248 34.8898 66.2208 33.2284 63.1488C33.0351 62.7902 32.3538 62.5182 31.8911 62.5088C29.0578 62.4488 26.2231 62.4942 23.3884 62.4662C22.2564 62.4555 21.3311 62.0048 20.8751 60.8928C20.4671 59.8982 20.5898 58.9048 21.3911 58.2168C21.8818 57.7942 22.6324 57.4982 23.2818 57.4688C25.3511 57.3728 27.4298 57.4942 29.4991 57.4048C30.9084 57.3435 32.3244 57.1448 33.7111 56.8715C35.1884 56.5795 35.8231 55.5848 35.6631 54.1115C35.5378 52.9515 34.5551 52.1302 33.1578 52.1275C25.6698 52.1128 18.1804 52.1195 10.6924 52.1195C9.93112 52.1195 9.16845 52.1382 8.40712 52.1155C6.77778 52.0675 5.57112 50.9448 5.56712 49.5008C5.56445 48.0595 6.77645 46.8755 8.38978 46.8755C16.1324 46.8795 23.8738 46.9168 31.6151 46.9355C34.4924 46.9422 37.3684 46.9195 40.2444 46.9248C41.3564 46.9275 42.1524 46.3742 42.4604 45.3848C42.7898 44.3328 42.6658 43.1835 41.5978 42.5888C40.9404 42.2222 40.0818 42.0955 39.3084 42.0822C36.2631 42.0262 33.2164 42.0755 30.1711 42.0475C28.7924 42.0342 27.8604 41.2915 27.5818 40.1075C27.3031 38.9182 27.8604 37.6795 29.0044 37.1782C29.4458 36.9835 29.9858 36.9542 30.4818 36.9515C34.2471 36.9342 38.0124 36.9435 41.7778 36.9408C43.5591 36.9395 44.6218 36.0808 44.6578 34.6248C44.6938 33.2062 43.4791 32.1035 41.7671 32.0995C35.7164 32.0848 29.6671 32.1008 23.6164 32.1008C16.8471 32.1008 10.0778 32.1088 3.30845 32.0848C0.952449 32.0768 -0.256882 30.4142 0.611118 28.4435C1.07112 27.4035 1.91112 27.0102 3.04045 27.0168C7.73645 27.0395 12.4324 27.0222 17.1298 27.0222C27.7911 27.0235 38.4524 27.0315 49.1151 27.0222C51.3778 27.0208 52.6231 25.1635 51.6391 23.2875C51.0671 22.1968 50.0338 22.0328 48.9338 22.0328C42.5444 22.0355 36.1564 22.0342 29.7671 22.0328C27.6951 22.0328 25.6204 22.0608 23.5484 22.0195C22.3124 21.9942 21.3964 21.4515 21.0298 20.1675C20.7151 19.0635 21.0018 18.1048 21.9098 17.5075C22.4604 17.1448 23.2404 16.9968 23.9218 16.9835C30.0951 16.8595 36.2698 16.7888 42.4444 16.6982C44.8124 16.6622 47.1818 16.6355 49.5484 16.5622C50.7711 16.5248 51.5964 15.8622 51.9111 14.6822C52.1898 13.6395 51.8244 12.7302 50.9378 12.1688C50.4818 11.8795 49.8444 11.7715 49.2884 11.7648C46.0311 11.7288 42.7724 11.7488 39.5151 11.7422C39.2711 11.7422 39.0271 11.6888 38.8004 11.6622" fill="#42B75E"/>
<path d="M12.6678 22.0327C11.5292 22.0327 10.3905 22.0661 9.25318 22.0247C7.64251 21.9647 6.69584 21.0287 6.67451 19.5487C6.65051 17.9367 7.39851 17.0581 9.11984 17.0007C11.5625 16.9194 14.0118 16.9234 16.4545 17.0101C18.0612 17.0674 18.9465 18.1141 18.8985 19.6034C18.8545 20.9314 17.8092 21.9594 16.3358 22.0221C15.1158 22.0754 13.8905 22.0327 12.6678 22.0327Z" fill="#2A915D"/>
<path d="M21.5934 42.0422C20.6654 42.0422 19.7334 42.0916 18.8094 42.0302C17.3574 41.9342 16.4241 40.8542 16.4721 39.4249C16.5201 38.0022 17.5121 36.9782 18.9494 36.9502C20.6788 36.9182 22.4094 36.9236 24.1388 36.9489C25.6508 36.9689 26.7254 38.0089 26.7721 39.4396C26.8188 40.8702 25.7908 41.9582 24.2508 42.0422C23.3681 42.0902 22.4801 42.0502 21.5934 42.0502V42.0422Z" fill="#2A915D"/>
<path d="M68.2795 0.500416L66.4968 22.3177H86.4875L68.2795 0.500416Z" fill="#2A915D"/>
</svg>
